# xmcd
#
# Track frame offsets: 
#        150
#        11698
#        23134
#        34912
#        47094
#        59211
#        73242
#        86654
#        99368
#        112248
#        122093
#        135100
#        147830
#        160801
#        174726
#        186897
#        196524
#        210360
#        222724
#        233472
#        246126
#        258408
#        271254
#
# Disc length: 3781 seconds
#
# Revision: 0
# Processed by: cddbd v1.5.1PL0 Copyright (c) Steve Scherf et al.
# Submitted via: ExactAudioCopy v0.95a5
#
DISCID=4d0ec317
DTITLE=Various Artist - Vee-Jay Music For Film and TV
DYEAR=2002
DGENRE=R&B/Soul
TTITLE0=Gene Chandler - Duke Of Earl
TTITLE1=John Lee Hooker - Boom Boom
TTITLE2=The Eldorados - At My Front Door
TTITLE3=Billy Emerson - Every Woman I Know
TTITLE4=Billy Boy Arnold - I Wish You Would
TTITLE5=Staple Singers - Swing Low
TTITLE6=Eddie Taylor - Big Town Playboy
TTITLE7=The Magnificents - Up On The Mountain
TTITLE8=John Lee Hooker - Dimples
TTITLE9=Jimmy Reed - Shame, Shame, Shame
TTITLE10=The Dells - Oh What A Nite
TTITLE11=The Eldorados - Bim Bam Boom
TTITLE12=Pee Wee Clayton - Telephone Is Ringing
TTITLE13=The Harmonizing Four - Motherless Child
TTITLE14=The Spaniels - Goodnight Sweetheart Goodnight
TTITLE15=Gene Allison - You Can Make It If You Try
TTITLE16=Elmore James - It Hurts Me Too
TTITLE17=Jerry Butler - For Your Precious Love
TTITLE18=Wade Flemons - Here I Stand
TTITLE19=Jerry Butler - He Will Break Your Heart
TTITLE20=Swan Silvertones - My Soul Is A Witness
TTITLE21=Dee Clark - Raindrops
TTITLE22=Jimmy Reed - Bright Lights Big City
EXTD=
EXTT0=
EXTT1=
EXTT2=
EXTT3=
EXTT4=
EXTT5=
EXTT6=
EXTT7=
EXTT8=
EXTT9=
EXTT10=
EXTT11=
EXTT12=
EXTT13=
EXTT14=
EXTT15=
EXTT16=
EXTT17=
EXTT18=
EXTT19=
EXTT20=
EXTT21=
EXTT22=
PLAYORDER=
